HIERARCHY
ROOT Hips
{
	OFFSET -0.001795 -0.223333 0.028219
	CHANNELS 6 Xposition Yposition Zposition Zrotation Yrotation Xrotation 
	JOINT LeftUpLeg
	{
		OFFSET 0.069520 -0.091406 -0.006815
		CHANNELS 3 Zrotation Yrotation Xrotation
		JOINT LeftLeg
		{
			OFFSET 0.034277 -0.375199 -0.004496
			CHANNELS 3 Zrotation Yrotation Xrotation
			JOINT LeftFoot
			{
				OFFSET -0.013596 -0.397961 -0.043693
				CHANNELS 3 Zrotation Yrotation Xrotation
				JOINT LeftToe
				{
					OFFSET 0.026358 -0.055791 0.119288
					CHANNELS 3 Zrotation Yrotation Xrotation
					End Site
					{
						OFFSET 0.000000 0.000000 0.000000
					}
				}
			}
		}
	}
	JOINT RightUpLeg
	{
		OFFSET -0.067670 -0.090522 -0.004320
		CHANNELS 3 Zrotation Yrotation Xrotation
		JOINT RightLeg
		{
			OFFSET -0.038290 -0.382569 -0.008850
			CHANNELS 3 Zrotation Yrotation Xrotation
			JOINT RightFoot
			{
				OFFSET 0.015774 -0.398415 -0.042312
				CHANNELS 3 Zrotation Yrotation Xrotation
				JOINT RightToe
				{
					OFFSET -0.025372 -0.048144 0.123348
					CHANNELS 3 Zrotation Yrotation Xrotation
					End Site
					{
						OFFSET 0.000000 0.000000 0.000000
					}
				}
			}
		}
	}
	JOINT Spine
	{
		OFFSET -0.002533 0.108963 -0.026696
		CHANNELS 3 Zrotation Yrotation Xrotation
		JOINT Spine1
		{
			OFFSET 0.005487 0.135180 0.001092
			CHANNELS 3 Zrotation Yrotation Xrotation
			JOINT Spine2
			{
				OFFSET 0.001457 0.052922 0.025425
				CHANNELS 3 Zrotation Yrotation Xrotation
				JOINT Neck
				{
					OFFSET -0.002778 0.213870 -0.042857
					CHANNELS 3 Zrotation Yrotation Xrotation
					JOINT Head
					{
						OFFSET 0.005152 0.064970 0.051349
						CHANNELS 3 Zrotation Yrotation Xrotation
						End Site
						{
							OFFSET 0.000000 0.000000 0.000000
						}
					}
				}
				JOINT LeftShoulder
				{
					OFFSET 0.078845 0.121749 -0.034090
					CHANNELS 3 Zrotation Yrotation Xrotation
					JOINT LeftArm
					{
						OFFSET 0.090977 0.030469 -0.008868
						CHANNELS 3 Zrotation Yrotation Xrotation
						JOINT LeftForeArm
						{
							OFFSET 0.259612 -0.012772 -0.027456
							CHANNELS 3 Zrotation Yrotation Xrotation
							JOINT LeftHand
							{
								OFFSET 0.249234 0.008986 -0.001171
								CHANNELS 3 Zrotation Yrotation Xrotation
								End Site
								{
									OFFSET 0.000000 0.000000 0.000000
								}
							}
						}
					}
				}
				JOINT RightShoulder
				{
					OFFSET -0.081759 0.118833 -0.038615
					CHANNELS 3 Zrotation Yrotation Xrotation
					JOINT RightArm
					{
						OFFSET -0.096012 0.032551 -0.009143
						CHANNELS 3 Zrotation Yrotation Xrotation
						JOINT RightForeArm
						{
							OFFSET -0.253742 -0.013329 -0.021401
							CHANNELS 3 Zrotation Yrotation Xrotation
							JOINT RightHand
							{
								OFFSET -0.255298 0.007772 -0.005559
								CHANNELS 3 Zrotation Yrotation Xrotation
								End Site
								{
									OFFSET 0.000000 0.000000 0.000000
								}
							}
						}
					}
				}
			}
		}
	}
}
MOTION
Frames: 13
Frame Time: 0.050000
0.000000 0.947549 0.000000 0.211395 -5.110535 6.590010 6.298330 -0.297296 -5.138404 -1.130522 0.220145 -3.657036 2.876357 8.893327 13.021058 0.000000 0.000000 0.000000 -4.017860 0.651400 -6.938758 -2.435824 0.097120 -2.166992 -0.982849 -7.248946 11.136972 0.000000 0.000000 0.000000 4.545119 0.201498 -4.011049 -2.988634 1.415516 -0.160105 -4.488161 3.341570 2.338772 7.161769 -4.319199 -7.703938 0.000000 0.000000 0.000000 -4.948839 -24.959539 9.295094 -36.267744 -49.891121 10.911183 11.895561 -48.826368 -3.564467 0.000000 0.000000 0.000000 -3.671988 17.536897 5.847085 23.345825 52.112186 6.952084 -45.703981 55.464656 -21.613130 0.000000 0.000000 0.000000 
-0.001950 0.947979 -0.000099 -0.086518 -5.525524 7.012850 6.471283 -0.285064 -4.901034 -0.364859 0.181543 -4.461924 2.926999 8.884457 12.816386 0.000000 0.000000 0.000000 -3.296495 0.705074 -7.504362 -3.416362 0.183697 -1.960247 -0.507396 -6.673759 11.894998 0.000000 0.000000 0.000000 4.736143 0.213373 -4.178689 -2.520616 1.171562 -1.448337 -5.599357 4.275489 2.770999 9.289183 -5.850613 -7.431436 0.000000 0.000000 0.000000 -5.779562 -24.264874 8.997508 -35.677114 -49.465147 10.428660 7.549820 -48.257543 -1.681839 0.000000 0.000000 0.000000 -2.879132 16.973261 5.755299 24.496468 54.728022 8.165980 -41.457879 54.699041 -18.751416 0.000000 0.000000 0.000000 
-0.003240 0.948365 -0.000641 0.091032 -5.278234 6.538621 6.413345 -0.300197 -5.467587 0.084655 0.061163 -2.102751 2.038758 7.223928 11.591367 0.000000 0.000000 0.000000 -3.687656 0.650073 -6.877065 -3.207260 0.166101 -2.007190 -0.649283 -7.030519 12.274663 0.000000 0.000000 0.000000 5.634591 0.128080 -3.127249 -2.892214 1.332517 -1.965323 -6.428831 5.223415 2.383411 9.197138 -6.117119 -5.598745 0.000000 0.000000 0.000000 -7.622821 -24.954338 9.317277 -35.045158 -48.464469 9.827966 4.841169 -48.573398 -0.646414 0.000000 0.000000 0.000000 -2.381990 16.939037 5.832435 24.688061 55.698642 8.707012 -39.263111 54.905974 -17.436197 0.000000 0.000000 0.000000 
-0.004089 0.948810 -0.001504 0.100756 -4.230996 7.158667 6.698009 -0.330510 -5.959794 0.112163 0.085276 -2.841610 2.058441 7.615617 12.739901 0.000000 0.000000 0.000000 -3.466464 0.681152 -7.294165 -3.593507 0.192775 -2.130835 -0.905476 -7.403310 12.384377 0.000000 0.000000 0.000000 5.816202 0.177772 -3.808616 -3.074252 1.420463 -1.799771 -6.983781 4.846567 2.439191 10.582713 -7.086057 -5.802566 0.000000 0.000000 0.000000 -6.966809 -25.917627 9.614517 -34.294881 -48.875721 9.647043 3.753776 -48.864800 -0.180646 0.000000 0.000000 0.000000 -2.902269 17.084453 5.834208 23.309114 56.983321 8.425026 -38.711790 53.685266 -16.637060 0.000000 0.000000 0.000000 
-0.004459 0.949166 -0.002329 0.214284 -3.844910 6.891985 6.491088 -0.340229 -5.993340 0.367369 0.040763 -2.256896 1.960249 7.442336 12.448083 0.000000 0.000000 0.000000 -3.507531 0.668296 -7.191736 -3.843253 0.204621 -2.280172 -0.737648 -7.003207 12.277320 0.000000 0.000000 0.000000 5.816763 0.143496 -3.417826 -3.207930 1.479102 -1.993585 -7.495836 5.358549 2.585226 11.340755 -7.544961 -6.150224 0.000000 0.000000 0.000000 -7.213006 -26.485605 9.760559 -33.847500 -47.725878 9.066310 2.486207 -50.311822 0.287324 0.000000 0.000000 0.000000 -2.958674 17.123206 5.857911 22.760535 58.042056 8.547652 -37.479613 52.646584 -15.515180 0.000000 0.000000 0.000000 
-0.004538 0.949923 -0.003071 0.085683 -4.035958 7.194579 6.373108 -0.347341 -6.037201 0.725087 0.027114 -2.751208 2.427461 8.248398 12.800712 0.000000 0.000000 0.000000 -3.671775 0.680407 -7.332072 -3.498971 0.132161 -2.913820 -0.753447 -7.245141 12.865422 0.000000 0.000000 0.000000 6.174306 0.133964 -3.364877 -3.593502 1.645872 -2.235680 -7.477143 6.013363 2.605272 11.849126 -7.874682 -6.276166 0.000000 0.000000 0.000000 -7.624163 -26.251584 9.626846 -33.642125 -47.123307 8.790191 1.886312 -52.267718 0.504362 0.000000 0.000000 0.000000 -3.952433 18.024719 6.041759 20.458508 58.854631 7.691509 -35.372087 50.107068 -13.588845 0.000000 0.000000 0.000000 
-0.004443 0.950052 -0.003447 0.167859 -3.814189 7.346502 6.302455 -0.356830 -6.083272 0.588405 0.052147 -3.062228 2.337023 8.121192 12.764110 0.000000 0.000000 0.000000 -3.761837 0.689965 -7.486319 -3.450259 0.108946 -3.213684 -0.771067 -7.238161 12.844186 0.000000 0.000000 0.000000 6.055395 0.134145 -3.406525 -3.890135 1.778506 -2.272896 -7.545008 6.621764 2.393539 12.661222 -8.244326 -6.992115 0.000000 0.000000 0.000000 -7.863444 -26.071013 9.447223 -33.860354 -45.354142 8.333549 1.782684 -55.755138 0.415736 0.000000 0.000000 0.000000 -4.258066 18.552017 6.193269 18.456809 59.284890 6.916479 -33.293907 47.843553 -11.882257 0.000000 0.000000 0.000000 
-0.004557 0.950810 -0.003575 0.047379 -4.049824 7.324772 6.265681 -0.341355 -5.689644 0.519613 0.070700 -3.387615 2.592433 8.569569 13.091540 0.000000 0.000000 0.000000 -3.716278 0.674738 -7.239262 -3.290966 0.076401 -3.517329 -0.705703 -7.201227 13.007904 0.000000 0.000000 0.000000 6.301810 0.131036 -3.361232 -4.317932 1.966672 -2.363407 -7.421083 7.484417 2.199538 13.207290 -8.616958 -7.004330 0.000000 0.000000 0.000000 -8.105693 -25.639639 9.160365 -34.089875 -43.902007 7.979345 1.536577 -58.573363 0.380670 0.000000 0.000000 0.000000 -5.139396 19.122507 6.253882 16.525999 60.038906 6.240973 -30.502890 45.509819 -10.030342 0.000000 0.000000 0.000000 
-0.004714 0.950828 -0.003528 -0.078164 -3.888845 7.266001 6.487495 -0.332996 -5.608801 0.334953 0.093294 -3.568752 2.666375 8.765100 13.390644 0.000000 0.000000 0.000000 -3.459508 0.660622 -7.022874 -3.216701 0.051587 -3.829284 -0.873204 -7.567824 13.271714 0.000000 0.000000 0.000000 6.336616 0.113695 -3.181819 -4.469130 2.041851 -2.163046 -7.609491 8.085724 1.694448 13.764440 -8.885730 -7.316339 0.000000 0.000000 0.000000 -8.347600 -25.289628 8.886364 -34.191879 -42.903802 7.747364 1.879831 -61.630587 -0.042850 0.000000 0.000000 0.000000 -5.397039 19.744690 6.438339 15.364838 60.622409 5.922147 -28.256628 43.047588 -8.513083 0.000000 0.000000 0.000000 
-0.004914 0.950829 -0.003496 -0.070534 -4.041361 7.193696 6.627185 -0.322495 -5.504129 0.188678 0.110073 -3.697666 2.475740 8.499292 13.675379 0.000000 0.000000 0.000000 -3.370500 0.636098 -6.670225 -3.155226 0.033736 -4.033502 -0.932658 -7.670079 13.187957 0.000000 0.000000 0.000000 6.546571 0.075159 -2.790968 -4.863078 2.202625 -2.608849 -7.775130 8.648091 1.760686 14.490477 -9.366421 -7.478681 0.000000 0.000000 0.000000 -8.476883 -25.753667 9.013800 -33.339594 -42.467093 7.353287 4.163479 -63.611440 -1.597105 0.000000 0.000000 0.000000 -5.910779 20.323487 6.541195 14.247274 61.131589 5.529587 -25.975146 40.950903 -7.223467 0.000000 0.000000 0.000000 
-0.004964 0.950447 -0.003563 -0.184058 -4.069468 6.980024 6.832093 -0.310028 -5.418658 0.150547 0.114123 -3.723692 2.481114 8.597976 14.151859 0.000000 0.000000 0.000000 -3.205512 0.618416 -6.437119 -3.312527 0.041284 -4.070579 -0.665432 -7.204817 13.249270 0.000000 0.000000 0.000000 6.614229 0.074265 -2.742475 -5.223284 2.389850 -1.986646 -7.769323 8.581841 1.409360 14.388497 -9.361698 -7.199553 0.000000 0.000000 0.000000 -7.847283 -25.872156 9.015842 -33.110223 -43.485784 7.557491 7.090435 -64.134529 -3.461461 0.000000 0.000000 0.000000 -6.359641 20.657043 6.572649 14.083785 61.800945 5.587472 -24.241677 38.786550 -6.244858 0.000000 0.000000 0.000000 
-0.004872 0.949917 -0.003753 -0.356514 -4.090587 6.832136 6.946737 -0.306334 -5.533771 0.242833 0.097722 -3.489086 2.421150 8.451251 13.889019 0.000000 0.000000 0.000000 -3.062641 0.608538 -6.308381 -3.324559 0.044427 -4.036493 -0.731098 -7.222770 12.915340 0.000000 0.000000 0.000000 6.696097 0.077640 -2.740750 -5.188091 2.386520 -1.702758 -7.671932 8.758639 1.252672 14.071574 -9.237707 -6.801573 0.000000 0.000000 0.000000 -7.624020 -26.690934 9.318666 -32.597351 -44.948406 7.783039 9.700631 -63.605342 -5.056935 0.000000 0.000000 0.000000 -6.291977 21.182458 6.762020 14.487122 61.589600 5.800068 -22.805900 38.134801 -5.660010 0.000000 0.000000 0.000000 
-0.004855 0.949817 -0.004055 -0.382415 -4.172804 6.598389 6.935440 -0.299772 -5.474700 0.508582 0.062429 -3.162875 2.436158 8.525763 14.195141 0.000000 0.000000 0.000000 -3.126953 0.587867 -6.055236 -3.210488 0.035144 -4.071189 -0.675452 -7.163056 13.017120 0.000000 0.000000 0.000000 6.615126 0.054487 -2.458518 -5.186181 2.389826 -1.633136 -7.465450 8.885245 1.108801 13.682147 -9.074179 -6.360660 0.000000 0.000000 0.000000 -6.871168 -27.708413 9.677708 -31.657033 -46.982503 7.967778 11.039330 -61.471873 -5.585574 0.000000 0.000000 0.000000 -6.201896 21.574348 6.912330 15.916110 61.133983 6.494210 -22.364605 37.975058 -5.482147 0.000000 0.000000 0.000000 
